<svg xmlns="http://www.w3.org/2000/svg" viewBox="0 0 788.4 287.7" enable-background="new 0 0 788.4 287.7"><style type="text/css">.st0{fill:#247B97;} .st1{fill:#FFFFFF;} .st2{fill:#494B43;} .st3{fill:#BBD25E;} .st4{fill:#C60C30;} .st5{fill:#E9BF2F;} .st6{fill:#CCCCCC;} .st7{fill:#20727B;} .st8{fill:#BAD15D;} .st9{fill:#B3B9AA;} .st10{fill:#EFEFEF;} .st11{fill:#E0E0DF;} .st12{fill:#333333;} .st13{fill:#494B43;stroke:#494B43;stroke-miterlimit:10;} .st14{fill:#247B97;stroke:#494B43;stroke-miterlimit:10;} .st15{fill:#6F6F6F;}</style><g id="Layer_1"><path d="M47.4 287.7c-10.7 0-20-2.2-27.7-6.4-7.7-4.3-14.2-10.9-19.2-19.6l-.5-1 25.3-26.1.8 2.1c2.6 6.5 6.1 11.3 10.4 14.4 4.3 3 9.8 4.6 16.4 4.6 7 0 12.9-1.9 17.5-5.7 4.6-3.8 7.5-9 8.7-15.7.7-4.2.3-8-1.4-11.2-1.7-3.3-4.6-6.3-8.8-8.8-1.1-.7-2.7-1.7-4.8-2.9-12.6-7.6-20.6-13.9-24.5-19.3-2.8-4-4.8-8.7-5.7-13.8-.9-5.1-.9-10.7.2-16.5 2.6-14.6 10-26.9 22.2-36.6 12.2-9.7 26.4-14.6 42.3-14.6 9.6 0 18 1.8 24.9 5.4 6.9 3.6 12.5 9.1 16.5 16.4l.5.9-24.2 25.5-.8-2.2c-1.9-5.2-4.6-9.1-8.2-11.6-3.6-2.5-8.1-3.8-13.4-3.8-6.1 0-11.4 1.8-16 5.3-4.5 3.5-7.3 7.9-8.2 13.2-1.2 6.8 4.2 14 15.9 21.4 2.4 1.5 4.2 2.7 5.4 3.5 11.3 7.4 18.8 14.9 22.1 22.1 3.3 7.3 4 16.7 2 28-2.8 15.8-10.5 28.7-22.8 38.4-12.2 9.7-27.3 14.6-44.9 14.6zM170.4 206.9h.5l42.5-43h44.8l-58.6 55.4 37.6 64.3h-45.3l-24.9-46.3h-.5l-8.2 46.3h-34.5l29.3-174.4h34.5l-17.2 97.7zM248.5 283.6h34.5l19.1-120.9h-34.5zM331.7 283.6h-34.5l29.1-173.7h34.5l-29.1 173.7zM382.7 283.6h-34.5l29.1-173.6h34.5l-29.1 173.6zM478.5 191.2c-4.2-4.7-10-8.4-16.9-8.4-5.7 0-12 4.4-13 10.3-1.4 8.9 10.8 11.3 22.2 16.8 11.7 5.4 22.7 13.8 19.4 34.7-4.3 26.8-28.5 42.9-53.8 42.9-16.3 0-30.8-7.4-39.4-20.2l19-20.5c5.5 7.4 13.3 14.1 23.4 14.1 7.6 0 14.6-5.2 15.9-13.1 1.7-10.6-10-13-21.3-18.2-11.2-5.2-22.2-12.3-19.1-31.8 3.6-22.7 22-39.2 44.6-39.2 12.8 0 28.4 3.9 36.9 12.6l-17.9 20zM652.5 283.6h-34.5l14.5-87.3h-11.5l4.6-27.6h11.6l.8-6c4.7-28.1 21.1-52.6 54.4-52.6 5.6 0 11.1 1.2 15.9 3.7l-4.9 29.3c-4.1-2.1-8.2-4-13.4-4-15.3 0-16.7 18.9-18.3 28.3l-.1 1.3h27.6l-4.6 27.6h-27.6l-14.5 87.3zM738.8 283.6h-34.5l14.5-87.3h-11.8l4.6-27.6h11.8l5.2-29.8h34.5l-5.2 29.8h21.2l-4.6 27.6h-21.2l-14.5 87.3z"/><path class="st4" d="M578.8 178.1c21.1 8.3 34.9 28.7 34.9 52.8 0 31.3-25.4 56.7-56.7 56.7-31.3 0-56.7-25.4-56.7-56.7 0-22.3 12.9-41.6 31.7-50.9 0 0-.7 28.6 0-9.5s-20-160.7-103.1-165.6c-83-4.9-117.1 85.6-124.3 111.6 3.2 3.6 5.2 8.3 5.2 13.5 0 11.2-9.1 20.2-20.2 20.2-11.2 0-20.2-9.1-20.2-20.2 0-8.7 5.5-16.1 13.2-18.9 44-129 160.2-110.1 160.2-110.1 102.3 7.9 128.2 113.9 134.8 167.5l1.2 9.6z"/><path d="M780.5 139.3c4.4 0 7.9 3.6 7.9 7.9 0 4.4-3.5 8-7.9 8s-7.9-3.5-7.9-8c-.1-4.3 3.5-7.9 7.9-7.9zm-.1 1.6c-3.3 0-6 2.9-6 6.4 0 3.6 2.7 6.4 6 6.4s6.1-2.8 6.1-6.4c0-3.6-2.7-6.4-6.1-6.4zm-1.3 11h-1.9v-8.9c.7-.1 1.5-.2 2.8-.2 1.5 0 2.4.2 3 .7.5.4.8 1 .8 1.9 0 1.1-.7 1.8-1.7 2v.1c.8.1 1.3.8 1.4 2.2.2 1.4.4 1.9.5 2.2h-1.9c-.2-.3-.4-1.1-.5-2.3-.1-1-.7-1.3-1.7-1.3h-.8v3.6zm0-5.1h.9c1.1 0 1.9-.4 1.9-1.3 0-.7-.5-1.3-1.8-1.3h-1v2.6z"/></g></svg>